<?xml version="1.0" standalone="no"?>
<!DOCTYPE svg PUBLIC "-//W3C//DTD SVG 20010904//EN"
 "http://www.w3.org/TR/2001/REC-SVG-20010904/DTD/svg10.dtd">
<svg version="1.0" xmlns="http://www.w3.org/2000/svg"
 width="101.000000pt" height="101.000000pt" viewBox="0 0 101.000000 101.000000"
 preserveAspectRatio="xMidYMid meet">
<metadata>
Created by potrace 1.14, written by Peter Selinger 2001-2017
</metadata>
<g transform="translate(0.000000,101.000000) scale(0.100000,-0.100000)"
fill="#000000" stroke="none">
<path d="M434 887 c-13 -7 -20 -21 -19 -34 1 -14 -4 -23 -12 -23 -7 0 -13 -5
-13 -11 0 -5 6 -7 13 -3 8 5 8 3 -2 -9 -7 -9 -18 -14 -24 -10 -6 3 -7 1 -3 -6
6 -9 11 -9 23 0 12 11 14 10 11 -7 -1 -10 -7 -22 -13 -26 -6 -5 -4 -8 5 -8 12
0 12 -2 2 -9 -11 -6 -10 -10 4 -15 10 -4 15 -4 11 0 -4 4 1 13 11 21 15 13 15
14 0 10 -11 -4 -15 -1 -13 11 2 9 4 19 4 21 2 12 22 -18 26 -37 2 -14 -3 -25
-15 -32 -11 -6 -17 -18 -15 -30 2 -13 -2 -20 -11 -20 -8 0 -14 4 -14 8 0 5 -6
9 -12 10 -7 1 -38 4 -68 6 -46 5 -59 10 -82 37 -16 17 -28 35 -28 39 0 14 -48
32 -68 26 -11 -4 -33 -23 -48 -43 -15 -20 -21 -33 -13 -29 8 4 5 0 -5 -8 -15
-12 -16 -16 -5 -16 10 -1 10 -4 -4 -14 -10 -8 -14 -17 -8 -20 5 -3 12 0 14 6
4 10 6 9 6 -1 1 -11 4 -11 19 0 15 13 16 12 3 -3 -8 -11 -9 -18 -3 -18 6 0 9
-6 6 -14 -3 -8 0 -17 7 -22 8 -5 10 -3 4 6 -5 9 -4 11 4 6 6 -4 20 -2 29 5 9
8 7 2 -5 -12 -30 -33 -30 -49 0 -21 19 18 26 19 37 9 11 -10 12 -8 6 8 l-6 20
15 -20 c9 -11 19 -19 22 -18 13 3 22 29 17 48 -4 16 -2 15 9 -4 9 -16 17 -20
21 -12 4 6 12 9 17 5 5 -3 7 -10 3 -15 -3 -5 -10 -7 -15 -4 -5 4 -9 -1 -9 -10
0 -10 5 -13 12 -9 7 5 8 3 3 -6 -6 -10 -4 -12 10 -6 15 5 16 4 5 -9 -12 -15
-14 -15 -23 0 -7 13 -12 14 -23 4 -11 -9 -15 -8 -19 3 -6 16 -35 20 -35 6 0
-5 -9 -4 -20 2 -19 10 -25 4 -21 -22 1 -11 -7 -10 -29 2 -10 6 -21 6 -24 2 -3
-5 0 -9 7 -10 7 0 21 -2 32 -4 12 -2 19 2 17 10 -3 16 25 16 31 0 4 -10 6 -10
6 0 1 17 21 15 44 -5 11 -10 17 -13 14 -6 -4 6 -3 14 3 18 20 12 10 -21 -12
-40 -30 -25 -106 -25 -125 1 -7 10 -13 13 -13 5 0 -7 -4 -10 -9 -7 -5 4 -20 2
-33 -3 -12 -6 -17 -10 -10 -10 6 -1 12 -5 12 -10 0 -5 -8 -8 -17 -7 -14 1 -18
-7 -18 -33 0 -20 5 -35 13 -37 7 -1 8 0 2 3 -5 2 -8 9 -5 13 3 5 17 2 32 -5
15 -8 30 -12 35 -9 4 3 5 -3 1 -12 -4 -12 -3 -15 5 -10 7 4 12 1 12 -8 0 -23
20 -30 38 -13 14 15 14 17 -1 23 -9 3 -17 11 -17 16 0 6 6 6 14 -1 11 -10 17
-8 25 6 9 15 10 13 6 -11 -2 -16 -10 -33 -17 -38 -8 -5 -9 -8 -2 -8 6 0 17 7
24 15 7 8 16 12 21 9 5 -3 9 0 9 5 0 6 -4 11 -10 11 -5 0 -10 4 -10 9 0 12 24
8 43 -7 13 -11 17 -10 24 2 7 13 10 12 21 -5 8 -12 9 -18 3 -15 -7 5 -8 1 -4
-10 4 -11 8 -13 11 -6 2 7 9 9 14 6 7 -4 8 -2 4 4 -4 7 -1 12 9 12 9 0 14 -4
11 -8 -2 -4 4 -8 14 -8 10 0 16 5 13 11 -2 7 4 12 14 12 18 0 46 -31 49 -54 3
-16 -31 -55 -40 -46 -3 3 -6 1 -6 -5 0 -18 17 -23 24 -6 10 27 23 6 21 -36 -1
-22 2 -40 7 -40 18 0 23 -3 35 -20 8 -11 21 -16 32 -13 13 3 21 -1 24 -14 4
-17 5 -17 6 0 1 11 6 15 13 11 7 -4 8 -3 4 5 -5 8 0 10 18 7 41 -7 56 -19 46
-36 -5 -8 -10 -10 -10 -4 0 7 -7 15 -15 18 -13 5 -12 1 2 -18 16 -21 19 -22
27 -8 5 10 12 19 15 22 14 12 8 25 -12 26 -12 1 -33 4 -46 8 -14 3 -30 1 -37
-5 -7 -6 -14 -6 -18 -1 -3 6 1 12 9 16 16 6 21 36 5 36 -5 0 -7 -7 -4 -15 10
-26 -5 -16 -20 13 -13 24 -13 29 -1 29 8 0 11 -5 8 -10 -3 -6 -1 -7 5 -3 19
12 14 36 -5 29 -10 -3 -15 -3 -11 1 3 4 14 9 25 11 10 2 20 4 22 4 2 1 -3 9
-10 19 -13 15 -12 16 3 4 10 -8 16 -19 15 -25 -3 -14 26 -16 35 -2 4 5 6 0 5
-12 -1 -15 -5 -19 -12 -13 -7 6 -16 5 -25 -3 -10 -10 -11 -9 -5 3 6 12 5 13
-5 3 -10 -9 -10 -16 -2 -25 5 -7 11 -17 12 -23 1 -5 2 -10 3 -10 1 0 2 1 1 3
-1 1 14 19 33 38 l34 37 -21 19 c-12 11 -19 27 -16 35 5 11 2 13 -9 9 -10 -3
-13 -2 -10 5 4 5 1 17 -7 26 -11 14 -11 16 1 8 11 -6 13 -1 9 24 -3 18 0 35 5
38 6 3 7 1 3 -5 -4 -7 -2 -12 4 -12 6 0 10 -8 8 -17 -1 -10 2 -24 6 -32 7 -11
5 -13 -10 -7 -14 5 -16 4 -7 -5 18 -18 37 -1 21 19 -11 13 -10 15 5 9 16 -6
16 -5 1 17 -10 16 -12 26 -5 31 6 3 11 -1 11 -9 0 -8 4 -18 10 -21 6 -3 7 1 4
9 -3 9 -1 16 4 16 16 0 24 -18 12 -25 -16 -10 -12 -48 5 -42 8 4 17 1 21 -5 4
-7 14 -2 25 13 18 23 19 24 36 5 17 -18 17 -18 -7 -6 -14 7 -22 9 -18 5 4 -5
3 -14 -3 -22 -9 -9 -8 -13 0 -13 6 0 11 5 11 10 0 6 5 10 11 10 5 0 7 -4 4
-10 -3 -6 1 -7 10 -4 9 4 14 16 13 32 -2 20 2 25 19 27 18 1 20 -1 11 -12 -9
-11 -13 -12 -19 -1 -5 7 -9 9 -9 3 1 -5 8 -19 17 -30 13 -16 15 -17 10 -2 -6
16 3 22 27 18 5 -1 6 5 3 13 -4 10 -1 13 9 9 12 -4 12 -8 2 -21 -11 -13 -10
-15 4 -10 17 7 20 -18 2 -30 -16 -12 -15 -32 2 -32 8 0 13 4 9 9 -3 5 -1 13 5
16 6 4 10 3 9 -2 -4 -23 3 -34 28 -44 20 -7 30 -6 41 5 13 13 13 16 -1 30 -10
10 -18 12 -22 6 -3 -5 -2 -10 3 -10 5 0 9 -7 9 -15 0 -17 -6 -18 -25 -6 -12 7
-12 12 -1 30 8 11 16 21 20 21 3 0 6 7 7 15 1 8 3 22 4 29 1 8 6 14 12 13 6
-1 10 4 8 11 -1 8 2 11 7 8 14 -9 20 16 9 37 -5 10 -5 17 1 17 5 0 12 -5 14
-10 3 -6 4 -5 3 2 -1 7 -17 18 -35 25 -18 8 -30 10 -27 4 9 -14 -44 -26 -98
-22 -27 2 -75 51 -69 69 6 14 4 15 -8 5 -13 -10 -16 -10 -16 1 0 9 12 12 36
11 48 -3 68 4 49 17 -10 8 -9 9 4 5 9 -3 19 -3 22 1 14 13 44 11 50 -4 3 -8 2
-12 -4 -9 -6 3 -10 1 -10 -4 0 -16 20 -13 26 4 6 14 40 15 62 2 4 -3 7 12 7
33 0 21 -4 36 -9 33 -5 -4 -7 1 -3 9 3 9 0 21 -6 27 -7 7 -12 17 -12 24 0 12
-61 57 -79 57 -13 0 -54 -36 -83 -73 -16 -20 -31 -26 -76 -31 -64 -5 -77 -11
-77 -32 0 -9 5 -12 12 -8 7 4 8 3 4 -4 -4 -7 -1 -12 6 -13 7 0 3 -5 -9 -11
-12 -6 -24 -17 -27 -24 -7 -18 -1 -18 18 2 18 17 36 11 36 -13 0 -9 -6 -13
-14 -10 -8 3 -20 -2 -28 -11 -8 -10 -8 -13 -1 -9 6 4 14 3 18 -3 3 -5 2 -10
-2 -10 -5 0 -10 -12 -11 -26 -1 -14 -5 -30 -8 -35 -6 -11 -41 -3 -62 14 -29
23 -119 1 -109 -27 3 -7 2 -19 -3 -26 -6 -9 -10 -7 -15 9 -7 24 -22 28 -22 6
0 -8 4 -12 9 -9 4 3 8 -5 8 -16 0 -15 5 -20 15 -17 8 4 17 1 21 -5 4 -7 3 -8
-5 -4 -6 4 -14 0 -17 -8 -3 -9 -10 -13 -15 -10 -5 3 -7 10 -4 15 4 5 1 9 -5 9
-6 0 -9 4 -5 9 3 5 0 13 -6 17 -8 5 -9 3 -4 -6 5 -9 4 -11 -3 -6 -7 4 -12 2
-12 -5 0 -7 -3 -9 -7 -6 -3 4 -12 2 -19 -4 -8 -6 -14 -7 -18 0 -4 6 -14 8 -24
5 -14 -5 -15 -4 -2 5 12 9 13 11 1 11 -23 0 -4 12 24 15 14 2 23 -1 20 -5 -3
-5 -13 -6 -23 -3 -15 6 -15 5 -4 -10 13 -15 16 -15 43 5 18 13 25 24 18 29 -7
4 -5 8 4 12 16 6 12 46 -6 58 -12 8 1 31 13 24 5 -3 11 -1 14 4 4 5 -7 7 -24
5 -16 -3 -30 -2 -31 3 0 4 -2 16 -4 25 -2 10 1 16 7 15 6 -1 12 6 13 17 2 10
9 24 16 30 9 8 10 8 5 -1 -5 -9 -2 -11 8 -7 9 3 16 1 16 -6 0 -6 -4 -9 -8 -6
-4 2 -14 0 -22 -5 -13 -8 -12 -9 2 -7 9 2 24 -6 32 -17 14 -19 15 -18 11 12
-2 18 0 35 6 38 5 4 7 10 5 14 -3 4 4 7 14 8 11 1 22 -2 25 -8 4 -5 -2 -6 -12
-2 -16 6 -16 5 -4 -10 12 -15 11 -20 -3 -35 -14 -17 -14 -20 0 -38 15 -19 15
-19 6 1 -10 21 9 51 23 37 4 -4 6 0 5 8 -4 25 0 44 7 37 3 -4 11 -3 18 1 6 4
3 0 -7 -9 -16 -16 -16 -18 -1 -30 14 -11 15 -11 9 -1 -10 17 31 48 59 45 11
-2 15 0 8 3 -7 3 -9 12 -6 21 4 11 2 14 -5 9 -8 -5 -10 -1 -5 10 4 12 3 15 -5
10 -7 -4 -12 -2 -12 4 0 6 -5 8 -12 4 -7 -5 -8 -3 -4 5 5 7 15 10 23 6 12 -4
13 -2 5 8 -8 10 -6 13 11 14 12 1 24 -3 28 -8 4 -7 9 -4 12 6 4 9 3 13 -2 10
-5 -3 -12 -1 -16 4 -3 6 -13 7 -23 4 -13 -4 -13 -2 3 10 11 9 27 17 35 17 10
1 9 4 -5 10 -11 5 -14 9 -6 9 8 1 2 13 -17 31 -26 25 -40 30 -79 30 -27 -1
-57 -6 -69 -13z m339 -264 c-7 -2 -19 -2 -25 0 -7 3 -2 5 12 5 14 0 19 -2 13
-5z m-707 -143 c0 -30 -9 -39 -21 -20 -4 6 -10 8 -15 5 -5 -3 -8 4 -7 15 2 25
6 25 24 3 8 -10 12 -12 8 -5 -5 10 1 32 9 32 1 0 2 -13 2 -30z m879 10 c3 -5
1 -10 -4 -10 -6 0 -11 5 -11 10 0 6 2 10 4 10 3 0 8 -4 11 -10z m-782 -35 c-7
-21 -12 -19 -10 4 0 11 5 18 9 15 4 -3 5 -11 1 -19z m516 -21 c1 11 4 17 7 13
3 -3 3 -15 -1 -27 -5 -15 -10 -18 -19 -11 -7 6 -16 7 -21 3 -4 -4 -1 3 6 15
12 21 14 21 21 5 6 -15 7 -15 7 2z m-238 -53 c-6 -10 -7 -22 -3 -26 4 -5 2 -5
-5 -2 -13 8 -6 47 9 47 5 0 4 -8 -1 -19z m29 -91 c0 -5 -5 -10 -11 -10 -5 0
-7 5 -4 10 3 6 8 10 11 10 2 0 4 -4 4 -10z m105 -20 c-3 -5 -10 -10 -16 -10
-5 0 -9 5 -9 10 0 6 7 10 16 10 8 0 12 -4 9 -10z m-83 -24 c7 -12 6 -22 -3
-32 -12 -14 -14 -14 -26 2 -7 9 -10 20 -8 25 3 4 0 11 -6 15 -7 4 -9 3 -5 -4
3 -6 3 -13 -2 -16 -4 -2 -8 4 -9 14 -1 14 4 18 24 16 14 -2 30 -11 35 -20z"/>
<path d="M470 230 c0 -5 5 -10 11 -10 5 0 7 5 4 10 -3 6 -8 10 -11 10 -2 0 -4
-4 -4 -10z"/>
<path d="M598 803 c7 -3 16 -2 19 1 4 3 -2 6 -13 5 -11 0 -14 -3 -6 -6z"/>
<path d="M542 668 c-7 -7 -12 -20 -12 -30 0 -10 -6 -18 -12 -18 -7 0 -2 -7 10
-16 21 -15 25 -15 42 1 10 9 16 24 13 32 -5 13 -2 14 18 4 21 -11 22 -10 7 2
-10 8 -14 18 -10 22 4 5 1 5 -6 1 -7 -4 -19 -3 -26 3 -9 7 -16 7 -24 -1z m28
-18 c0 -5 -7 -7 -15 -4 -8 4 -12 10 -9 15 6 11 24 2 24 -11z m-4 -35 c-10 -8
-24 -11 -30 -8 -6 4 0 10 14 14 36 10 37 10 16 -6z"/>
<path d="M436 661 c-4 -5 -2 -12 3 -15 5 -4 12 -2 15 3 4 5 2 12 -3 15 -5 4
-12 2 -15 -3z"/>
<path d="M55 629 c-4 -17 -4 -33 -1 -36 3 -4 6 1 6 11 0 9 4 15 10 11 5 -3 8
-11 6 -18 -1 -7 -1 -9 1 -4 3 4 10 4 16 0 7 -3 4 3 -6 15 -11 11 -16 25 -13
31 4 5 2 12 -3 15 -5 4 -12 -8 -16 -25z"/>
<path d="M823 613 c-3 -8 -3 -17 1 -20 3 -4 6 1 6 11 0 9 4 15 9 11 5 -3 12
-2 15 3 3 5 -2 9 -10 9 -9 0 -18 -7 -21 -14z"/>
<path d="M226 603 c-6 -14 -5 -15 5 -6 7 7 10 15 7 18 -3 3 -9 -2 -12 -12z"/>
<path d="M363 605 c-7 -8 -9 -16 -4 -19 5 -3 12 1 15 10 8 22 4 25 -11 9z"/>
<path d="M390 611 c0 -6 4 -13 10 -16 6 -3 7 1 4 9 -7 18 -14 21 -14 7z"/>
<path d="M893 600 c-11 -16 -10 -18 2 -14 8 4 15 12 15 20 0 19 -3 18 -17 -6z"/>
<path d="M920 611 c0 -10 19 -25 25 -20 1 2 -3 10 -11 17 -8 7 -14 8 -14 3z"/>
<path d="M501 597 c2 -1 13 -9 24 -17 19 -14 19 -14 6 3 -7 9 -18 17 -24 17
-6 0 -8 -1 -6 -3z"/>
<path d="M760 583 c9 -20 13 -21 30 -10 21 12 27 27 11 27 -5 0 -12 -7 -15
-17 -6 -14 -8 -14 -22 3 -14 18 -15 18 -4 -3z"/>
<path d="M56 567 c3 -10 9 -15 12 -12 3 3 0 11 -7 18 -10 9 -11 8 -5 -6z"/>
<path d="M495 570 c3 -5 8 -10 11 -10 2 0 4 5 4 10 0 6 -5 10 -11 10 -5 0 -7
-4 -4 -10z"/>
<path d="M934 435 c-10 -8 -17 -15 -14 -16 25 -5 50 -4 50 3 0 4 -5 8 -11 8
-5 0 -7 5 -4 10 9 14 2 12 -21 -5z"/>
<path d="M50 426 c0 -2 7 -7 16 -10 8 -3 12 -2 9 4 -6 10 -25 14 -25 6z"/>
<path d="M213 415 c1 -11 -3 -19 -10 -18 -13 3 -26 -24 -14 -31 13 -8 46 1 44
13 -4 15 10 14 25 -1 9 -9 12 -9 12 0 0 7 -5 12 -11 12 -8 0 -7 6 2 18 13 15
12 16 -4 3 -15 -12 -19 -12 -32 5 -13 19 -13 18 -12 -1z m14 -28 c0 -7 -9 -14
-20 -14 -19 -2 -19 -2 -1 12 11 8 19 15 20 15 0 0 1 -6 1 -13z"/>
<path d="M27 406 c-4 -10 -1 -13 8 -9 8 3 12 9 9 14 -7 12 -11 11 -17 -5z"/>
<path d="M790 395 c0 -17 9 -19 28 -6 11 7 10 10 -3 15 -23 9 -25 8 -25 -9z"/>
<path d="M914 392 c2 -10 7 -17 12 -16 5 1 15 -6 22 -15 11 -13 11 -12 1 8
-10 21 -9 23 5 18 8 -3 18 -1 22 6 4 7 4 9 0 5 -4 -3 -20 -3 -36 2 -23 7 -28
5 -26 -8z"/>
<path d="M53 387 c-3 -5 -2 -11 1 -14 3 -4 6 -1 6 4 0 12 18 12 37 0 9 -6 11
-3 7 7 -6 15 -42 18 -51 3z"/>
<path d="M130 370 c-8 -5 -12 -11 -9 -14 2 -3 11 -1 19 4 8 5 12 11 9 14 -2 3
-11 1 -19 -4z"/>
<path d="M163 364 c4 -7 -8 -18 -31 -28 -35 -16 -20 -16 23 -1 16 6 15 3 -5
-14 -14 -11 -20 -21 -13 -21 6 0 18 7 26 15 8 8 18 11 23 7 5 -4 2 2 -6 12 -8
11 -13 21 -12 23 2 3 0 8 -4 11 -4 4 -4 2 -1 -4z"/>
<path d="M95 351 c-3 -6 -10 -9 -14 -7 -4 3 -8 -1 -8 -9 0 -8 2 -15 4 -15 9 0
35 31 30 36 -3 3 -8 0 -12 -5z"/>
<path d="M810 331 c0 -6 4 -13 10 -16 6 -3 7 1 4 9 -7 18 -14 21 -14 7z"/>
<path d="M835 330 c3 -5 8 -10 11 -10 2 0 4 5 4 10 0 6 -5 10 -11 10 -5 0 -7
-4 -4 -10z"/>
<path d="M844 304 c-18 -14 -18 -15 4 -4 12 6 22 13 22 15 0 8 -5 6 -26 -11z"/>
<path d="M920 311 c-8 -6 -18 -7 -22 -5 -4 3 -5 -3 -1 -13 6 -15 4 -16 -8 -6
-13 10 -16 10 -16 -2 0 -8 3 -13 5 -10 3 3 12 -1 20 -8 11 -8 14 -9 9 0 -4 7
2 21 15 32 23 22 23 27 -2 12z"/>
<path d="M84 298 c-4 -6 -3 -8 4 -4 6 3 14 -3 17 -14 7 -23 26 -22 33 1 3 11
2 11 -7 -1 -9 -13 -15 -8 -13 12 2 12 -27 17 -34 6z"/>
<path d="M610 274 c0 -14 -4 -22 -10 -19 -6 3 -7 -1 -4 -10 5 -11 2 -14 -10
-9 -23 9 -20 -3 4 -16 11 -6 20 -7 19 -3 -3 18 1 34 9 30 4 -3 7 8 7 24 0 16
-3 29 -7 29 -5 0 -8 -12 -8 -26z"/>
<path d="M365 282 c3 -3 -1 -12 -8 -20 -10 -13 -9 -14 2 -7 11 6 13 4 8 -8 -3
-9 -2 -16 3 -14 5 1 15 -7 23 -18 9 -11 19 -16 24 -12 4 5 -1 15 -11 23 -14
10 -16 14 -5 14 12 0 12 2 -1 10 -13 9 -13 11 0 20 8 5 13 10 10 11 -22 4 -49
5 -45 1z"/>
<path d="M630 230 c-9 -6 -10 -10 -3 -10 6 0 15 5 18 10 8 12 4 12 -15 0z"/>
<path d="M370 189 c0 -5 5 -7 10 -4 6 3 10 8 10 11 0 2 -4 4 -10 4 -5 0 -10
-5 -10 -11z"/>
<path d="M435 191 c3 -5 -1 -16 -10 -24 -13 -13 -13 -16 1 -27 12 -11 13 -10
8 5 -4 10 -3 16 2 13 5 -4 10 5 10 18 1 13 -2 24 -8 24 -5 0 -7 -4 -3 -9z"/>
<path d="M400 180 c-9 -6 -10 -10 -3 -10 6 0 15 5 18 10 8 12 4 12 -15 0z"/>
<path d="M476 181 c-19 -7 -19 -8 0 -13 13 -3 21 0 21 8 0 8 -1 14 -1 13 -1 0
-10 -4 -20 -8z"/>
<path d="M534 158 c3 -24 28 -32 32 -10 1 7 0 8 -3 2 -9 -18 -22 -11 -18 10 2
11 0 20 -6 20 -5 0 -7 -10 -5 -22z"/>
</g>
</svg>
